<mxfile host="app.diagrams.net" modified="2024-04-01T06:52:30.861Z" agent="Mozilla/5.0 (Windows NT 10.0; Win64; x64) AppleWebKit/537.36 (KHTML, like Gecko) Chrome/123.0.0.0 Safari/537.36" version="24.2.1" etag="SUVVXrXu78Qy8YIKtfXz" type="github">
  <diagram name="페이지-1" id="UeP7zzYRbqt2_Ixkl6D5">
    <mxGraphModel>
      <root>
        <mxCell id="0" />
        <mxCell id="1" parent="0" />
      </root>
    </mxGraphModel>
  </diagram>
</mxfile>
